<svg xmlns="http://www.w3.org/2000/svg" viewBox="0 0 800 300">
  <defs>
    <linearGradient id="bgGrad" x1="0%" y1="0%" x2="100%" y2="100%">
      <stop offset="0%" style="stop-color:#1a1a2e"/>
      <stop offset="100%" style="stop-color:#0f0f23"/>
    </linearGradient>
    <linearGradient id="boxGrad" x1="0%" y1="0%" x2="100%" y2="100%">
      <stop offset="0%" style="stop-color:#16213e"/>
      <stop offset="100%" style="stop-color:#0f3460"/>
    </linearGradient>
  </defs>
  
  <rect width="800" height="300" fill="url(#bgGrad)"/>
  
  <text x="400" y="35" text-anchor="middle" fill="#00d9ff" font-size="20" font-family="sans-serif" font-weight="bold">Agent-Reach 工作流程</text>
  
  <g transform="translate(40, 80)">
    <rect x="0" y="0" width="110" height="70" rx="10" fill="url(#boxGrad)" stroke="#00d9ff" stroke-width="2"/>
    <text x="55" y="28" text-anchor="middle" fill="#00d9ff" font-size="11" font-family="sans-serif" font-weight="bold">用户查询</text>
    <text x="55" y="48" text-anchor="middle" fill="#aaa" font-size="9" font-family="sans-serif">自然语言</text>
  </g>
  
  <text x="160" y="125" fill="#e94560" font-size="18">→</text>
  
  <g transform="translate(180, 80)">
    <rect x="0" y="0" width="110" height="70" rx="10" fill="url(#boxGrad)" stroke="#ffd700" stroke-width="2"/>
    <text x="55" y="28" text-anchor="middle" fill="#ffd700" font-size="11" font-family="sans-serif" font-weight="bold">智能选择</text>
    <text x="55" y="48" text-anchor="middle" fill="#aaa" font-size="9" font-family="sans-serif">匹配平台</text>
  </g>
  
  <text x="300" y="125" fill="#e94560" font-size="18">→</text>
  
  <g transform="translate(320, 80)">
    <rect x="0" y="0" width="110" height="70" rx="10" fill="url(#boxGrad)" stroke="#00ff88" stroke-width="2"/>
    <text x="55" y="28" text-anchor="middle" fill="#00ff88" font-size="11" font-family="sans-serif" font-weight="bold">并行抓取</text>
    <text x="55" y="48" text-anchor="middle" fill="#aaa" font-size="9" font-family="sans-serif">15+ 平台并发</text>
  </g>
  
  <text x="440" y="125" fill="#e94560" font-size="18">→</text>
  
  <g transform="translate(460, 80)">
    <rect x="0" y="0" width="110" height="70" rx="10" fill="url(#boxGrad)" stroke="#e94560" stroke-width="2"/>
    <text x="55" y="28" text-anchor="middle" fill="#e94560" font-size="11" font-family="sans-serif" font-weight="bold">数据清洗</text>
    <text x="55" y="48" text-anchor="middle" fill="#aaa" font-size="9" font-family="sans-serif">去重/过滤</text>
  </g>
  
  <text x="580" y="125" fill="#e94560" font-size="18">→</text>
  
  <g transform="translate(600, 80)">
    <rect x="0" y="0" width="110" height="70" rx="10" fill="url(#boxGrad)" stroke="#a855f7" stroke-width="2"/>
    <text x="55" y="28" text-anchor="middle" fill="#a855f7" font-size="11" font-family="sans-serif" font-weight="bold">信号聚合</text>
    <text x="55" y="48" text-anchor="middle" fill="#aaa" font-size="9" font-family="sans-serif">排序/评分</text>
  </g>
  
  <text x="720" y="125" fill="#e94560" font-size="18">→</text>
  
  <g transform="translate(740, 80)">
    <rect x="0" y="0" width="90" height="70" rx="10" fill="#e94560" opacity="0.9"/>
    <text x="45" y="28" text-anchor="middle" fill="#fff" font-size="11" font-family="sans-serif" font-weight="bold">结构化</text>
    <text x="45" y="45" text-anchor="middle" fill="#ffcccc" font-size="9" font-family="sans-serif">JSON 输出</text>
    <text x="45" y="60" text-anchor="middle" fill="#ffcccc" font-size="9" font-family="sans-serif">LLM 友好</text>
  </g>
  
  <text x="400" y="220" text-anchor="middle" fill="#888" font-size="11" font-family="sans-serif">零 API 费用 · 真实信号聚合 · 专为 AI Agent 设计</text>
</svg>